<mxfile host="65bd71144e">
    <diagram id="ub26EWWYHZ2ObuOOEJtO" name="Page-1">
        <mxGraphModel dx="2914" dy="801" grid="1" gridSize="10" guides="1" tooltips="1" connect="1" arrows="1" fold="1" page="1" pageScale="1" pageWidth="827" pageHeight="1169" math="0" shadow="0">
            <root>
                <mxCell id="0"/>
                <mxCell id="1" parent="0"/>
                <mxCell id="153" value="" style="group" vertex="1" connectable="0" parent="1">
                    <mxGeometry x="-700" y="90" width="1090" height="661" as="geometry"/>
                </mxCell>
                <mxCell id="148" value="" style="rounded=0;whiteSpace=wrap;html=1;fillColor=none;dashed=1;dashPattern=1 4;strokeWidth=2;" vertex="1" parent="153">
                    <mxGeometry width="1090" height="620" as="geometry"/>
                </mxCell>
                <mxCell id="150" value="Backend Service" style="text;html=1;strokeColor=none;fillColor=none;align=center;verticalAlign=middle;whiteSpace=wrap;rounded=0;dashed=1;dashPattern=1 4;strokeWidth=2;" vertex="1" parent="153">
                    <mxGeometry x="460" y="631" width="170" height="30" as="geometry"/>
                </mxCell>
                <mxCell id="156" value="" style="group" vertex="1" connectable="0" parent="1">
                    <mxGeometry x="-730" y="70" width="1650" height="746" as="geometry"/>
                </mxCell>
                <mxCell id="154" value="" style="rounded=0;whiteSpace=wrap;html=1;dashed=1;dashPattern=1 4;strokeWidth=2;fillColor=none;" vertex="1" parent="156">
                    <mxGeometry width="1650" height="700" as="geometry"/>
                </mxCell>
                <mxCell id="155" value="AKS Cluster" style="text;html=1;strokeColor=none;fillColor=none;align=center;verticalAlign=middle;whiteSpace=wrap;rounded=0;dashed=1;dashPattern=1 4;strokeWidth=2;" vertex="1" parent="156">
                    <mxGeometry x="755" y="716" width="140" height="30" as="geometry"/>
                </mxCell>
                <mxCell id="4" value="Horizontal Pod&lt;br&gt;Autoscaler CA" style="sketch=0;html=1;dashed=0;whitespace=wrap;fillColor=#2875E2;strokeColor=#ffffff;points=[[0.005,0.63,0],[0.1,0.2,0],[0.9,0.2,0],[0.5,0,0],[0.995,0.63,0],[0.72,0.99,0],[0.5,1,0],[0.28,0.99,0]];verticalLabelPosition=bottom;align=center;verticalAlign=top;shape=mxgraph.kubernetes.icon;prIcon=hpa" parent="1" vertex="1">
                    <mxGeometry x="645" y="120" width="50" height="48" as="geometry"/>
                </mxCell>
                <mxCell id="2" value="Horizontal Pod&lt;br&gt;Autoscaler MA" style="sketch=0;html=1;dashed=0;whitespace=wrap;fillColor=#2875E2;strokeColor=#ffffff;points=[[0.005,0.63,0],[0.1,0.2,0],[0.9,0.2,0],[0.5,0,0],[0.995,0.63,0],[0.72,0.99,0],[0.5,1,0],[0.28,0.99,0]];verticalLabelPosition=bottom;align=center;verticalAlign=top;shape=mxgraph.kubernetes.icon;prIcon=hpa" parent="1" vertex="1">
                    <mxGeometry x="-125" y="120" width="50" height="48" as="geometry"/>
                </mxCell>
                <mxCell id="3" value="Horizontal Pod&lt;br&gt;Autoscaler BA" style="sketch=0;html=1;dashed=0;whitespace=wrap;fillColor=#2875E2;strokeColor=#ffffff;points=[[0.005,0.63,0],[0.1,0.2,0],[0.9,0.2,0],[0.5,0,0],[0.995,0.63,0],[0.72,0.99,0],[0.5,1,0],[0.28,0.99,0]];verticalLabelPosition=bottom;align=center;verticalAlign=top;shape=mxgraph.kubernetes.icon;prIcon=hpa" parent="1" vertex="1">
                    <mxGeometry x="-475" y="120" width="50" height="48" as="geometry"/>
                </mxCell>
                <mxCell id="88" value="" style="endArrow=oval;html=1;exitX=0.72;exitY=0.99;exitDx=0;exitDy=0;exitPerimeter=0;entryX=0.483;entryY=-0.004;entryDx=0;entryDy=0;entryPerimeter=0;endFill=1;strokeColor=#c5bebe;dashed=1;dashPattern=1 4;" edge="1" parent="1" source="2" target="73">
                    <mxGeometry width="50" height="50" relative="1" as="geometry">
                        <mxPoint x="-110" y="310" as="sourcePoint"/>
                        <mxPoint x="-60" y="260" as="targetPoint"/>
                    </mxGeometry>
                </mxCell>
                <mxCell id="90" value="" style="endArrow=oval;html=1;entryX=0.508;entryY=-0.015;entryDx=0;entryDy=0;entryPerimeter=0;endFill=1;strokeColor=#c5bebe;exitX=0.28;exitY=0.99;exitDx=0;exitDy=0;exitPerimeter=0;dashed=1;dashPattern=1 4;" edge="1" parent="1" source="2" target="74">
                    <mxGeometry width="50" height="50" relative="1" as="geometry">
                        <mxPoint x="-150" y="190" as="sourcePoint"/>
                        <mxPoint x="-148.5999999999999" y="424.17999999999995" as="targetPoint"/>
                    </mxGeometry>
                </mxCell>
                <mxCell id="92" value="" style="endArrow=oval;html=1;endFill=1;strokeColor=#c5bebe;exitX=0.28;exitY=0.99;exitDx=0;exitDy=0;exitPerimeter=0;dashed=1;dashPattern=1 4;entryX=0.502;entryY=-0.008;entryDx=0;entryDy=0;entryPerimeter=0;" edge="1" parent="1" source="3" target="20">
                    <mxGeometry width="50" height="50" relative="1" as="geometry">
                        <mxPoint x="-425" y="209.12999999999988" as="sourcePoint"/>
                        <mxPoint x="-560" y="480" as="targetPoint"/>
                    </mxGeometry>
                </mxCell>
                <mxCell id="93" value="" style="endArrow=oval;html=1;endFill=1;strokeColor=#c5bebe;exitX=0.5;exitY=1;exitDx=0;exitDy=0;exitPerimeter=0;dashed=1;dashPattern=1 4;entryX=0.511;entryY=0.001;entryDx=0;entryDy=0;entryPerimeter=0;" edge="1" parent="1" source="3" target="18">
                    <mxGeometry width="50" height="50" relative="1" as="geometry">
                        <mxPoint x="-436.1" y="200.00000000000009" as="sourcePoint"/>
                        <mxPoint x="-449" y="401" as="targetPoint"/>
                    </mxGeometry>
                </mxCell>
                <mxCell id="94" value="" style="endArrow=oval;html=1;exitX=0.72;exitY=0.99;exitDx=0;exitDy=0;exitPerimeter=0;endFill=1;strokeColor=#c5bebe;dashed=1;dashPattern=1 4;entryX=0.517;entryY=-0.007;entryDx=0;entryDy=0;entryPerimeter=0;" edge="1" parent="1" source="3" target="19">
                    <mxGeometry width="50" height="50" relative="1" as="geometry">
                        <mxPoint x="-390" y="190.00000000000009" as="sourcePoint"/>
                        <mxPoint x="-350" y="310" as="targetPoint"/>
                    </mxGeometry>
                </mxCell>
                <mxCell id="70" value="" style="group" vertex="1" connectable="0" parent="1">
                    <mxGeometry x="-580" y="310" width="260" height="231" as="geometry"/>
                </mxCell>
                <mxCell id="18" value="&lt;b&gt;Bildbearbeitungs&lt;/b&gt;&lt;br&gt;Agent" style="sketch=0;aspect=fixed;html=1;points=[];align=center;image;fontSize=12;image=img/lib/mscae/Docker.svg;" parent="70" vertex="1">
                    <mxGeometry x="105" y="95" width="50" height="41" as="geometry"/>
                </mxCell>
                <mxCell id="19" value="&lt;b&gt;Bildbearbeitungs&lt;/b&gt;&lt;br&gt;Agent" style="sketch=0;aspect=fixed;html=1;points=[];align=center;image;fontSize=12;image=img/lib/mscae/Docker.svg;" parent="70" vertex="1">
                    <mxGeometry x="210" width="50" height="41" as="geometry"/>
                </mxCell>
                <mxCell id="20" value="&lt;b&gt;Bildbearbeitungs&lt;/b&gt;&lt;br&gt;Agent" style="sketch=0;aspect=fixed;html=1;points=[];align=center;image;fontSize=12;image=img/lib/mscae/Docker.svg;" parent="70" vertex="1">
                    <mxGeometry y="190" width="50" height="41" as="geometry"/>
                </mxCell>
                <mxCell id="71" value="" style="group" vertex="1" connectable="0" parent="1">
                    <mxGeometry x="-230" y="310" width="260" height="231" as="geometry"/>
                </mxCell>
                <mxCell id="73" value="&lt;b&gt;Mediator&lt;/b&gt;&lt;br&gt;Agent" style="sketch=0;aspect=fixed;html=1;points=[];align=center;image;fontSize=12;image=img/lib/mscae/Docker.svg;" vertex="1" parent="71">
                    <mxGeometry x="210" width="50" height="41" as="geometry"/>
                </mxCell>
                <mxCell id="74" value="&lt;b&gt;Mediator&lt;/b&gt;&lt;br&gt;Agent" style="sketch=0;aspect=fixed;html=1;points=[];align=center;image;fontSize=12;image=img/lib/mscae/Docker.svg;" vertex="1" parent="71">
                    <mxGeometry y="190" width="50" height="41" as="geometry"/>
                </mxCell>
                <mxCell id="89" value="" style="endArrow=oval;html=1;entryX=0.528;entryY=-0.02;entryDx=0;entryDy=0;entryPerimeter=0;endFill=1;strokeColor=#c5bebe;dashed=1;dashPattern=1 4;" edge="1" parent="71" target="72">
                    <mxGeometry width="50" height="50" relative="1" as="geometry">
                        <mxPoint x="130" y="-140" as="sourcePoint"/>
                        <mxPoint x="143.1500000000001" y="62.31600000000003" as="targetPoint"/>
                    </mxGeometry>
                </mxCell>
                <mxCell id="72" value="&lt;b&gt;Mediator&lt;/b&gt;&lt;br&gt;Agent" style="sketch=0;aspect=fixed;html=1;points=[];align=center;image;fontSize=12;image=img/lib/mscae/Docker.svg;" vertex="1" parent="71">
                    <mxGeometry x="105" y="95" width="50" height="41" as="geometry"/>
                </mxCell>
                <mxCell id="95" value="" style="endArrow=oval;html=1;exitX=0.72;exitY=0.99;exitDx=0;exitDy=0;exitPerimeter=0;entryX=0.511;entryY=0;entryDx=0;entryDy=0;entryPerimeter=0;endFill=1;strokeColor=#c5bebe;dashed=1;dashPattern=1 4;" edge="1" parent="1" source="4" target="78">
                    <mxGeometry width="50" height="50" relative="1" as="geometry">
                        <mxPoint x="770" y="177.5200000000001" as="sourcePoint"/>
                        <mxPoint x="863.1500000000001" y="319.83600000000024" as="targetPoint"/>
                    </mxGeometry>
                </mxCell>
                <mxCell id="96" value="" style="endArrow=oval;html=1;exitX=0.5;exitY=1;exitDx=0;exitDy=0;exitPerimeter=0;entryX=0.508;entryY=-0.012;entryDx=0;entryDy=0;entryPerimeter=0;endFill=1;strokeColor=#c5bebe;dashed=1;dashPattern=1 4;" edge="1" parent="1" source="4" target="77">
                    <mxGeometry width="50" height="50" relative="1" as="geometry">
                        <mxPoint x="640" y="250.0000000000001" as="sourcePoint"/>
                        <mxPoint x="734.5499999999997" y="392.48" as="targetPoint"/>
                    </mxGeometry>
                </mxCell>
                <mxCell id="99" value="" style="endArrow=oval;html=1;exitX=0.28;exitY=0.99;exitDx=0;exitDy=0;exitPerimeter=0;entryX=0.497;entryY=-0.024;entryDx=0;entryDy=0;entryPerimeter=0;endFill=1;strokeColor=#c5bebe;dashed=1;dashPattern=1 4;" edge="1" parent="1" source="4" target="79">
                    <mxGeometry width="50" height="50" relative="1" as="geometry">
                        <mxPoint x="570" y="200" as="sourcePoint"/>
                        <mxPoint x="570.4000000000001" y="436.50800000000004" as="targetPoint"/>
                    </mxGeometry>
                </mxCell>
                <mxCell id="76" value="" style="group" vertex="1" connectable="0" parent="1">
                    <mxGeometry x="540" y="310" width="260" height="231" as="geometry"/>
                </mxCell>
                <mxCell id="77" value="&lt;b&gt;Client&lt;/b&gt;&lt;br&gt;Agent" style="sketch=0;aspect=fixed;html=1;points=[];align=center;image;fontSize=12;image=img/lib/mscae/Docker.svg;" vertex="1" parent="76">
                    <mxGeometry x="105" y="95" width="50" height="41" as="geometry"/>
                </mxCell>
                <mxCell id="78" value="&lt;b&gt;Client&lt;/b&gt;&lt;br&gt;Agent" style="sketch=0;aspect=fixed;html=1;points=[];align=center;image;fontSize=12;image=img/lib/mscae/Docker.svg;" vertex="1" parent="76">
                    <mxGeometry x="210" width="50" height="41" as="geometry"/>
                </mxCell>
                <mxCell id="79" value="&lt;b&gt;Client&lt;/b&gt;&lt;br&gt;Agent" style="sketch=0;aspect=fixed;html=1;points=[];align=center;image;fontSize=12;image=img/lib/mscae/Docker.svg;" vertex="1" parent="76">
                    <mxGeometry y="190" width="50" height="41" as="geometry"/>
                </mxCell>
                <mxCell id="75" value="" style="group" vertex="1" connectable="0" parent="1">
                    <mxGeometry x="213" y="368.9961538461539" width="145" height="85.5038461538461" as="geometry"/>
                </mxCell>
                <mxCell id="65" value="Mediator Service Laodbalancer" style="rounded=0;whiteSpace=wrap;html=1;container=0;" parent="75" vertex="1">
                    <mxGeometry y="25.503846153846098" width="120" height="60" as="geometry"/>
                </mxCell>
                <mxCell id="68" value="" style="shape=image;verticalLabelPosition=bottom;labelBackgroundColor=default;verticalAlign=top;aspect=fixed;imageAspect=0;image=data:image/png,iVBORw0KGgoAAAANSUhEUgAAASwAAAEsCAYAAAB5fY51AAAgAElEQVR4Xu2dB5hVxdnH/+feu52lLWVZYCkLgjQRidKVajf2bkzMZ0xivsRojEnUL4gltiioiTWxfWoExc8WWxBll0UUpCMgdanb+95+z/fMXRa239PPzDnvPE/y+Lgz77zzf+f8nJk7RQIlUoAUIAUEUUASxE9yUxAFHvly0BBfsi9HjsY8ESly6PdT9+8SxHVyUwAFCFgCBIlHFxd9NXQ4IrhUgmdODMj1QOoNSN3a81WGXCvLcqmE2MGYJH8mw7/01mlHtvDYLvKJbwUIWHzHhyvvFhUMnSZLnqshY64HnmF6nJMR3ReVY59EEX7j9ukHvtBji8q6RwEClntirbmlj+QPPi1J8j3sgWeGZiOdFJTl6JeRWOS3t52+b50Z9smmcxQgYDknloa3ZGHBkBESPI9J8J5juPE2BmWW3g7Fwr+//fR9e8yvj2oQUQEClohRs8Dnhfl5j3ok720WVNWiCglSQILv57+atuVlq+um+vhXgIDFf4ws9fCRT/pm+NIzP/RKntMtrbhVZR6v74k+k0bferm0JGqnH1Q3XwoQsPiKh63ePFQwMCdVTlkuSZ4TbHWkqXIJhSnZmefclLe2mgt/yAnbFSBg2R4CPhx4YkXuKFlKXiZJnmw+PGr0QpblIkkOnv3rGUVbefKLfLFHAQKWPbpzVetjBbmjvXLKCkmSenLl2DFn5PKgFDvj9qm7NvPpH3lllQIELKuU5rQe/mHVJBxBi9MuZKlbBCxL5earsvi2BdlXyO/IqrVeBC2+epD13hCwrNecixoZrDzw5SN+pEakJJdHEDz91mlFdLRHpLAZ5CsByyAhRTIjLqyOLcRXRKXgDIKWSL3OGF8JWMboKIwV0WF1bEVLlglawvQ64xwlYBmnJfeWnAIrghb3Xc00BwlYpknLl2GnwYqgxVf/ssobApZVSttYj1NhRdCysVPZVDUByybhrarW6bAiaFnVk/ioh4DFRxxM8cItsCJomdJ9uDRKwOIyLPqdchusmkNLliJTbpm2Z7t+FckCbwoQsHiLiAH+uBVWx6WTS/2on37HtEMELQP6E08mCFg8RcMAXwhWjSLKcqwsIDVMI2gZ0Kk4MkHA4igYel0hWLVUkKClt0fxV56AxV9MNHlEsGpfNoKWpu7EbSECFrehUe4YwapzrQhayvsS7zkJWLxHKIF/BCtlASRoKdOJ91wELN4j1Il/PMLKK/lw7onPxL3+8LufIypHuFGYoMVNKDQ7QsDSLJ29BXmG1aAe0+Pi7KvMJ2jZ200cVzsBS8CQigCrJll5hVYE/qm3TT+4Q8Dwu9plApZg4X+oIGdEGjK4uim0aRrYNLJqLSmn0CqNwD+NoCXWB0DAEiheDFapcnqBJHl68eJ2IlhxPtIiaPHSkRT6QcBSKJTd2USGFUHL7t7jnPoJWALE8uGVA/NSYilfiTiyoumhAB1MIBcJWJwHi8EqNZZSAI5eZFY6DexIWlrT4rzTceweAYvj4DgRVjQ95LjDCeAaAYvTIDkZVgQtTjudAG4RsDgMkhtgRdDisOMJ4BIBi7MguQlWvEOrAbWT/ji9eDdnXcTV7hCwOAq/G2HFN7SiRxpQN5Wgxc9HQsDiJBZuhhVBi5NOKIAbBCwOgkSwOh4EPrc80EiLg88k7gIBy+ZIEKzaBoCgZXOn5Lh6ApaNwSFYdSw+QcvGjslx1QQsm4JDsEosPEErsUZuy0HAsiHiBCvlohO0lGvlhpwELIuj/MSaYXmyH+yKmGyLq+6wOo/kxXknPouO7rOy208GrQ++uwkxOWq3K8fqj8QCh8vDRZPvn4193DjlAkcIWBYGmceRFYPVOSOewpCsWRYqob6qPeWf49/bf8UNtGqC+xGO+A9EfJhG0FIfT60lCFhalVNZjmClUrB2svMCrUCkCvWhkkYPZRC09IdWsQUClmKptGckWGnXrnVJu6EVk8OoCuyFLMvHXSNoGRfgBJYIWCZLTbAyXmD7oCWjOrgfkWigbaMIWsYHuh2LBCwTZSZYmSeuHdDyhyvREC7tuFEELfMCftQyAcskiR/Pzx3qRfJKnm4KFWWBXWlIrIRWVA6hys9+EGw2FWzPUYKW0vBpykfA0iRb54UYrDxIKZAkqZ8J5jWZdBqsmkSwBloyqgP7EYm1MxUkaGnqj1oLEbC0KtdBOYKVwYIqMGc2tPzhCjSEyxR40iwLjbTU6aUwNwFLoVBKsi0qGJoL2fsVjayUqGVsHrOgFY0FURUoSjwVpJGWsQHtwBoByyCZj8JqpSRJAwwyqduMU6eBHQljPLTkOKwYtDQnGmlplq69ggQsA+QkWBkgokEmjIRWQ7gc/nC5fs8aoTXp/tk4qN+Yuy0QsHTGn2ClU0ATihsBrUgsiOqAgccEZew9eoyHoKUj5gQsHeIRrHSIZ3JRfdCS41sY2FYGQxNBS7ecBCyNEhKsNApnYTGt0GoIlcEfqTDHU4KWLl0JWBrkI1hpEM2mImqhxfZaVcd/FTQxEbQ0i0vAUikdwUqlYBxkVwotGWwquBfsgLPpiaClSWIClgrZCFYqxOIsqxJo1YdKEYhUWuc5QUu11gQshZIRrBQKxXG2zqAVjvlRE9hvvfcELVWaE7AUyMUjrCR4cO7Iv3F/U6gCeS3NwqD14babISN2rF72z41TwYilvjRzgLY8KFSegJVAKB5hpTC2hmb70SmfolvqIENtNhmrCuzDq2vnmWJbidG6UDGCkWolWc3LQyMtRdoSsDqRiWB1XBynAiscbUBN8ICij8X0TASthBITsDqQiGDVUhgnAsv2qWB7fY+g1Sm0CFjtyEOwaiuKE4FVFzyCYLQm4X/VLc9A0OpQcgJWK2kIVu33FacBKxStR22Q42N9BK12OyIBq5ksBKuOxxJOApYsR1EZf/mGn4dZ21WeoNVGFgLWUUkIVp1PfJwErNrgYYSitZbP9DRVSNBqIRsBCwDBKvGn5BRgcT8VpIV4WnTvTIEHC3Jy0+QMrm4KTYwP63M4AVgxOXr0EVTOp4IELVp0b0+BRlilr5QkDzfXGluPImU1OgFYtcFDCEXrlDWYx1wy9oa9mPTAHBTz6J4VPrl2SvhQwcCcVDllNcFKWTcTHVjBSA3qQkeUNZbnXDJ2hr2Y5lZouRJYDFZpckohJI85Z0147vAafRMZWDFE4mcFZfn4+UGNMvBRzMXQch2wCFbavjmRgVUTOIBwrEFbw3kt5VJouQpYBCvtX5+owApEqlEfcuiSjwuh5RpgEay0w4qVFBFY7LqY+FSw2VUy+lTgsLTLoOUKYBGs9H9oIgKrJrgf4ahff+N5t+AiaDkeWAQrY7420YAViFShPlRiTONFsOISaDkaWAQr4740kYDFHpGoip8VlI0TQARLLoCWY4FFsDL2CxMHWDKqg/sRiQaMFUAUaw6HliOBRbAy/usSBVj+cCUawqXGCyCSRQdDy3HAIliZ82WJACz2tDx7Yh5w2VSwvZA7FFqOAhbByhxYibGtQUZ1YD/Yy82UjirgQGg5BlgEK3M/U95HWP5wBRrCZeaKIKJ1h0HLEcAiWJn/JfEMrGgsiKpAEU0FO+oGDoKW8MAiWJkPK76nhHIcVgxalDpRwCHQEhpYBCvrPlFeR1gN4XL4w+XWCSFyTQ6AlrDAIlhZ++XwCKxILIjqAPtVkJJiBQSHlpDAIlgp7p6GZeQPWHJ8CwPbykBJpQICQ0s4YBGsVHZOg7LzBqyGUBn8kQqDWudCMzJ2SsmYPH8mhPppVShgPb5mUD+vP2kV3RRq/QfGE7DYXqvq+K+ClHQpIGOblIzpIkFLGGAxWHkCyYUSpMG6gkSFNSnAC7BksKngXrADzpQMUEAwaAkBLIKVAR1TpwlegFUfKkUgUqmzNVS8hQICQYt7YC38akhfKeL7ikZW9n5kPAArHPOjJrDfXiGcWrsg0OIaWHFYhX3skdM8p/YTUdplN7DYNceNU8GIKJKJ56cA0OIWWAQrvvq73cBit4eyW0QpmawA59DiElgEK5M7pQbzdgIrHG1ATfCABq+piCYFOIYWd8AiWGnqYqYXsgtYNBU0PbTtV8AptLgCFsHKps6poFq7gFUXPIJgtEaBh5TFcAU4hBY3wCJYGd7dDDVoB7BoKmhoCLUZ4wxaXACLYKWtL1lVKtnXBdeM/xBdUrJNqZKNol5bfy5Ckbpj9mU5iqrAPvpV0BTFVRrlCFq2A4tgpbLzWJQ9yZuGoVlzMDzrXOR2nwqvJ9nUmqOxEIqqCvB9+b+xu3wZKhp2IRStNbVOMq5CAU6gZSuwCFYqOoxFWQd0Pw0nZV+PoVmzLaqx/Wq2lbyLNQeexs7yT2z1gypvpgAH0LINWLzBanz/67H58JuufcSgd8YoTB18OwZ2n8LVN1pUWYD/7PwDiqpWcuWXVc4kedJx6dg38ObGixGTo1ZV23E9NkPLFmBxB6uc6zF9yJ/w9KqTXAesHulDMDn3VuRlzbP/Y+jEg13ln2HZzj/hUM0arv002jkGrDtn12N7yXsELQCWA4tXWLGO5iZgeSQvTh34K5wy4CawfxYlrS56Ep99fzvYbaNuSE3AYm0laFkMLJ5h5SZgdU8bjLNHLEKvjJFCfvMldVvw5oaLUd6wQ0j/1TjdHFgELQuBxTus3AAsSfJgQv+fYtLA38DjSVLz3XCXl93c8PH2W7D2wHPc+WakQ62BxSO0gumY8uB0WHLnjyVTQt5gNaH/DZg6+I42/erpVeMcO9XwedNwzognMKjHDCO/J9ttbTryBt7edLXtfpjlQJInDXfObmhj/ruSd+KjTB6SDGwKpeF0K6BlOrB4g9X4owvs7QXaqWtYaUndcdHoV5CVMYKH/m24DweqV+N/vz3Lkbc5tDfCahKQpzUtq6BlKrBEgpVTp4RsverCUS8hM7Wf4aBobTAQjaE+zP7X+PN7RpIXGUkepHo9ptdd2bAbr3w7B5X+PabXZWUFnQGLt+mhFdAyDVi8werk/j/GtMF/7LSvOW1KmJ05HheMfgEp3kzDv7FDdSHsrArgYG0IxQ1hFDeEEIrK7daT7JXQNz0ZfTOS0L9LMoZ1T0VOF+N3zvvDFXht3TlgIy6npI6mhM3b913JUry54RIummw2tEwB1iMr+/ZJjnUt5OWm0M6mgc2j7KQpIRtZXXHSUiR7MwzpyJGYjG0VfnxbUo8dlQ3wh9uHk9LKGMRyMpIxOScTE7O7KC2WMF8wUovnVk90zC+IiUZYbpseGg6sRlhlFkqSh4trjZXCyklTwozk3rhi3FJkpPRJ+IF3liEmAzsq/VhXXI9N5fUIRvRBqqku9vJNRSCKUDR2dOrowanZmZjSPxOjstJ1bw6sDRzCc19PRG3wsK7281BYKbDcMj00FFgiw8opwErypsdHVj3Shuj63g7WhbCsqBobS+phDKaOu1MXjqI21PaYCeuMk3IycX5eTwzumqLL/7L67fGRVih6/AYIXQZtKqwGWG6AlmHAemB1/6yMUNpqbkZW/a/H9MF/UtXNnLCGdeGYlzCw22RV7W6emS2cL9tXjS8P1CDKhlgGp4gso7Sh8zcFfR4J5w7tgQuHZSHFq72L7qvMx4trxN7GoWQNq3WItha/jcUbLzU4ctrMGb2mpb03NPM/DqtweoEEiYut02qmgU5aw5o6+PfxjaFa057qAF7dWorqoDmHbNlUsNwfQVghCHum+nDrxBwM7ZaqtUn4fOfdWLHnPs3l7S6odoTl9DUt3cByCqxEnxL26TIGl49bArabXW1i/PhsXxU+21tl+PSvuS91oShqj255UOojG2BdObI3zhnaQ9PaFjtzyEbOoh7j0QqspunhvzZcBHYvvt3JqJGWLmA5CVYiA8sr+XDNhI/QLTVXU7/8v53lyD9g7mV54VgMZX7tbwqyda2rRvbS1L79Vavwj2/4ujZHaUP0AIvVsbX4LSzZeIVjoKUZWE6DlcjAmjbkDpycc4PSb6BFvg92V2J5UbWmskoLsZWwMn8YbGuEnnTx8CxcekKWJhPvb70Jaw+Kd+5QL7CcBi1NwOINVuNyrsXpQ+7W1JFbrmGJd5aQ7be6boK2Wzk/2VuFT/ea/zhpbSiCurAx0xKt0ApF67GoYAjqQ6W6+4mVBtivvnfOqtddJRtpLd54mW47RhjQMz1UDSzeYDUm+yrMzJtvhI5C3od11ojHMLzXuarb/9GeSvxnn7kjK+aU3qlgew3TCq1V+x7HJztuVa2VnQWMGGE1+e+E6aEqYDkZViJOCdleq2snfKz6eyo8VIu3d5SrLqe2gFFTwfbqvWFMX8wZ1E2VS+yhi8fzc1EXKlZVzs7MRgLLCdNDxcByOqxEBNY5I59CXtZcVd/T4foQnvj2cIfn/lQZS5C5JhSJH4Y2I7H9WQ/OGBQ/o6gmfXPgaXz43S/VFLE1r9HAEh1aioD16PKcXj5fRoFHkri4n8TIaWDz3ijSWcJeGSNw1fj3VH1MbCPoY2sP4Uh95xs3VRntIHMoFovvuTIzsUPU/zN5INhGU6WJPeSwMH8waoIHlBaxNZ8ZwOINWpCxUZIxc/5ZqEgkdsJIz18+OLWHz7dKkjzjExmz4u9GLbC356tIO93nDn8II/tcqEryFQdq8O7OhH1Clc32MrMNoqUNEURlfb8KKnHkulG9cfaQHkqyHsvzddFT+Pf2/1ZVxq7MWna6K/V1S/ESLNl4udLs5uaT8XVFFDOePAedXtafEFiL8od9LkmemeZ6q8y6WSOrptpFGWH5PMn42Wlr4PUoP2/HthX8dc0hi6aC0WN3YimLrPZcqV4Jj5w+GFlpyq989ocr8fAXvbjYm5So5WaNsJrq5WkhHsC/75mHTn9B6hRYj68Y+oDX4+v8EqlEihv0d7NhxdwUBVhsZMVGWGrSG9vKsOaI+QeB2Q0M5QFzp4Kt2z19QFf84qRsNXLg9fUXYEfp+6rK2JHZbGDxNj2UJdy1YC7u70jrDoH12Iohp/okXyEk+9+AsgJWIgHrwjEvYmA35Tu32ejqwa8PwuwZGpsAsoPNVkwFm3dotoT1yIzB6KfiUsAtxYvjO8B5T1YAizNoRWISTr13Lta1F5t2gXXZYnin9hu+wyNJQ+0OqFWwEgVY7K6rn0zMhyQlnM0fC91bO8qx6pC5R29YZdXBCBoi5vwqmKgfzs7thp+O7Zso27G/R6IBPPxlL7ANpTwnq4DFFbTY69LzMHq+1PYQZLu9/vH8ofO9ku/PdgdybL+rccZQ69xgrwqzBWOeU1pSD/RMG6bYRfbL4F0ri0xfu7JjKthcBLaW9dy8Yap+Mdx4+DVUNOxUrKUdGT2SDzOG3mlZ1ZuPvIm3Nl1pWX0dVSQDv1swD39t/fc2wHqoYGBOGlJ3AZL2Oz0MaK6VIysD3OXWxOayBry4ucRU/2KQUWbRr4KdNeTWU3IMvW7ZVNE4Ns7JQnxdyIPBf5mDFjuc2wBrYX7ecx7Je6OdehKsjFP/n5tLsKWs7bt2xtUAVAUj8Ns0FWzejkn9MvHrCea/DmSkdrza4gJaMh6850y0+NGvBbAeXj44OzUp2daLsAlWxnVhWW6cDgYMuou9Pc+C0RgqLP5VsCOF2JNiz87Ng0fF+p5xajvPkt3QkoH6oIT+D83FsUOvLYD1WMHQ3/rge8wu6QlWxirPnuJie6/MSjF23bE/DJ23xhjq3l+mD8IgnffBG+qQ4MZsh5aM/1pwJv7RJGMLYC3MH1bgkTxT7dCYYGW86suLavDBbvN2tlcGwgh08Bah8a1RZlHLzndllt2by05oyTKWLzgTs9oA6y/5uT0ypFTzencn8SZYmfMxvLK1FBtKzPnZnj1WUcnJVLC5elo2kZqjvrOsNkLrclt+RZeSkDl/JuK7no+NsB7PH3qVV/K9brXMBCvzFH/0m0NgtzMYnXicCja1Ma97Ku6dqu2qaKN1cpo9tg3knc3XWQ4tWca8BWfis5bAWpH3vNfj/S8rRSZYmav2H/P3mbL/qjIYQYCDXwXbU49dO/PiWcPNFdbF1u2Alixh/oK5uKcFsBblD2M3MkyyKhaj+l6C2cMesKo619XD7k+/Y8U+w9vtj0RRZdIzYEY5+/LZw5Gk4soZo+p1ix0boLX0nnm4pBWwhpdIktTbCtEZrGbl3a/qeIkVfjmpjtpQDPMLiwxtEjsjyF6+YVNCntPf5+She4qXZxeF981iaG29Zx5GHwPWbwuRNiR2grm7C4+GiGBlTV8taQjjoa8PGloZ22/F9l3xnhbNGoLeKq6b4b09vPpnJbTumde43h7/v8bjOGnG9u4OVL56/HvIyuDi4lJe+4EhfhkNrIZwFNUhc16ENqTBzYw8evpg5Ki4ucHo+t1ib8PhV/HO5h9Z0tyaLkh/fAr8R4E1ZEQakrZZUXOKrysuGfsGstKVH+C1wi+n1WHklJBNBdm1MXxPBI9HkKaE5vdmK0dXrDURLwbcPxsH48B6eNnAvNSUNMuOrRO0zO9QRi26s9srKgJRsNsYREm06G5upKyGVXwqKGHQ/LkoigNr/nL06pk0vLTZtixzWwyAoGW6xDBiW0N9OIoaQaaCTFHa1mBuv7IDVqxFwTT0fHA6Ko9tHF2Ynyd7LL5clKBlbufSu3E0Ev9VMGz6TaVGqkAbR41Us6Utu2DFvGix6M7+xcL8oSUeyWfJtobmMjBoXTzmFfTKONE8pV1qWc/RHBGngizMdDTHnM5uJ6xk4OCCeRgQnxo2NW9h/rBVHgs3jjaXNdmbgUvGvkbQMriv6XnWqy4cRa1AU8Em6ejws8GdCICdsGKtaX4AutlZwiHPeqWknxnfXGUWCVrKdFKTS+v1MmwqyH4VFDHR9TLGRs3OQ89NLZGBvy2Yh1+1GGE9+kX/65J9Ga8Y21x11gha6vRKlJvtSP+fwiL4w8o3JLCpIHuxOczTJVeJGnr07+k+D56fl0cnKBTqlSibndfKNPdNBi5fMA9LWgDrz58ip2f6sIMSPInaYerfCVrGyqt2HasuFEVtWIwNoq2Vmta/K345Xt37hMaq7RxrvMCKKRqQ0L3p1tGWN46uGLTZ50mJn9mxMxG0jFN/W4Ufz28sVmQwHIvFzwqKmu6aNBCjstJEdZ8bv3mClSwjf8GZmNEkTgtgPb5iyN1eT9ICHpRL8WXiotGvoHeXUZa5I8IzX6m+7shKV359CrvX/YHVB+KbPztLbNLItjCwDacipl5pPiyaOUTVdLC4bhP8YVvurFQsMZvxDOoxXXF+vRk3HXkDb2+6Wq8Zw8rLEn62YC6ebxdYDy3vOSA1qed+u6eFTc6xkdaFo19G38yxhgnQmSERnqpPT87CDRNXqvowPy+qxoe7KzvVsDYUQV1YnN3srRtz5cheuCCvp+J+EpOjePiLXghEqhSXsSNjkjcDd86KX7ZpeuJpZHUMUEnoMX8mjgWpzTNff12R+2KSJ/XHpqujsIIkbxouGv2qJdASAVhMtovGvIwB3ZRfXcZeY37gq/3wd/B6juhTQbbYzm5oyEhSfqXMjtIP8Pr68xX2QvuyWQUsHmGFRM98sbDctyytf2ZKzgEJyoNvdjitgpYowBrV91LMHna/Ktk/2VeFT/e0HU2IPhVkIlxyQhYuGZ6lSo+3Nl2FzUf+paqMHZmtABaPsJJl1HqSkdt8dMX0b/ep+r/mD3wqSUq72Y4AdVSnFdASBVhJ3nT87NRv4PH4FIeIXWnM1rLqW037akKRNv9OsVEOMmYme7Fw5hCk+ZT/uh2K1OHhL3shEgty0ILOXTAbWDzCiikiS7hrwVy0+a9yu8CaX9i1Z/dY370eSJk8RdRsaIkCLBaTc0f+DUOz5qgKT+GhWry94/jL36FYLL7nSuR0w5i+mDOom6ombDj8Ct7ZfL2qMnZlNhNY3MJKRqlnAAbMH402L6i0CywWnEe/yP5lsi/zb1be4KCkU5gJLZGA1b/rRFw89jUlkrXI89iaQzhYF4q/fFLaEAG760rUpPWgM4tzcd1GIZptFrB4hdXRad8P58/De+0FqENgscwPf5G9ONXX9TLeIsug9cPRL6Jf5smGuiYSsFjDLxzzEgZ2m6xKA/aW4MK1h3CoPiT8VPCBabnIUnkV8rbSd/Gv9Req0szOzGYAi2dYQcZ995yJuzvSvFNgsUKPrchd7fOknmpn0Nqr2+dJwYVjXjYUWqIBq2+Xsbj8pLdUh2ZHpR/zC/erLsdTgT9PGYgRPdRvEn1q5UiUNWznqSmd+mI0sHiGlQy8s2AeLu5MkITAmr8cXbr78lZ7JK91OzgVdiejoSUasJhM5496FoN7nKFQsePZVhyoxjMblO2AV23c5ALs+A07hqM2bS15G4s3XKq2mK35jQQWz7ACUHC4J2Y9NxGdnrpPCCwWrQdWZPfO8GSukCCNtDV67VTeOD38J/plTtDt2tOrxgnxy1HzhvbOOBFXjv8/TW1/a0c5ln5/fBFekxGLC6ndINrcvb8VjkZp/VaLPdZXXZInDXfO1v+g1ZYji7Fk0xX6nDGv9HopCTNbb2ForzpFwIpDa3X/rIxwegGP0DJqpCXiCIvFZvqQP2B8zk80dacPdlfg9e/KNJW1upCeu66+KlqEj7ffYrXLuuszYoTF88hKBjaF0nA6u/5YiViKgeUGaIkKLK/kwzUTPkK31FwlMW+Thx3d+efmYvB6jJB10hvH9cUZA9VtX2hqaFn9djzz1UnCjZ6Z/3qB5SRYMT1UAcvp0BIVWCwufbqMweXjlkCSlG+gbE6u7RV+PLnuMNhjqTylnqk+/PfJ/TCip/oFdtaOWCyCZ1afjJK6zTw1S7EveoDlNFhpApYI0Lpg1Avo3039D5siA4vFZcrg3+GU/jcq/hhaZ2S74J9efxjfltRrtmFkwVOzu+DGcdnISNIGYebL8l1/xpe7ubiARJM0WoHlRFhpBhb/0ErF+aOew4Bup6nqJCIuurdu4KXj3kS/zPGq2nhdY98AABLySURBVN0688qDtXhxczHYoWk7EjvMfP3oPvEHJfSk7aXv4Y31P9RjwvayWhbdtxQvwZKNl9vue3sOqF2zam1D9ZSwuQGeF+K9UlL810M1Iy3RR1gsNuwesStOWqp5Paspvmxq+K9tZSg4WGNpx2fbFa4a2Qs9UpWfk2zPwcM16/CPbyYLuW7VvD1qR1jbS97DmxsvBrs+h7ekF1a6RlhNYsShFUpbLUmePN4EUgstJwCLxSAzpR8uH/c22N1ZehO7gfT9XRUoPFRj2s54NuWbktMV5+f1BLuIT2+qaNiF578+lfvL+ZS0Uw2wnA4rQ4DFjDyysm+f5FhmoejQcgqwWEx6pA2N74JnlyAaldYcqQM7QL2prF43vBikxvbKwJScTEzM7mKUi2gIlePZ1SejOiD2Tv4mQZQCyw2wMgxYvEOL7dM678RnMLD7lE4/DCesYTU1sDZ4CP26noxrT/4Y7Doao9Pu6gC+K/ejqDaIg7UhHKwLIhht/yA1ez6+f5cU9O+SjMHdUjAqKx2DuqYY7RIawmV4Ze0cHKndYLhtuwwqWcPaWvw2Fm/kcwe/EdPA5trrWsNqHUTeR1rnjXoWud2ndtj3nDLCCkZqURc6HG8nOwFw3YRPDZkeJvpo/ZFY/PHVpgdY2V1V7H9q7qpKVEdHf2fTwJfXzkJ1oEirCS7LJRphuWVk1RQcQ4F1fKTVtVCSJO7WtDySF+ePer5DaDkBWDFEUOXfC1k+/gtfz7Rh+MnEL5GZmsPlR6nXqf1Vq/D6unPhjyjaLK23OkvLdwYst8HK0Clh8ygu/GpIXynsWykatJwArJrAAYRjbc+edUsdiB+dskzVizuWfpkaK9tW8m78J/yo3OauN40W+SrWEbDcCCvTgMUMiwgt0YEVjNSgLnSkwy+ObXk4e8STGJ8jxm2bnaEjHPNj2fd/xOqiJ+KXETo1tQcst8LKVGCJCC2RgRWTj04FkXiz57Css3Dh6JfQJaWvkN/5gerVWLrpGlT4dwnpvxqnWwPLzbAyHViiQUtkYNUE9yMc9Sv+FtiDrOeMfBLj+l2ruIzdGdmjEct3/Q8K9z3aYo3Obr/MrL85sNwOK0uAJRK0RAUWewy0PlSi6bthx5fmDX8UuT2maSpvRaGoHMaGQy/jy933Ou5XwET6NQGLYNWolOG/EnYUAN7XtM4d+Xd8tP03iMQCifoQV3+PyWFUBdivgvrWcfKy5mJW3n2qjjKZLQSb5q6Pg2qB60DVpC0D1qVjXuf2uA1kbAumY4rS+6z09hnLgMX7SEuvkHaVrw4WIRI1DrIjel+AiQNuwvBe59jVJLA9Vd8eeiE+qqoNNu4no8ShAjK2ScmYPn8mLLsB0lJgEbSM7XT+cCUawqXGGj1qLcXXFSP7XIjRfS5DXtY8eD3JptTTZDQUrQO7xnfdoRdRVFVgal1k3AAFbICVpVPC5hLxPD00IJSWmGD7jqr8+9gbuabXx+B18+Qt6Jo6wJS62O70pwpPRDiq/+5yUxwkoy0VsAlWtgGLRlp6vwA5frjXyvW2X0/9Hj3Th+l1vN3y5Q078OTKEabYJqMGK2AjrGwFFkFLe0fyhyviB32tTAQsK9XmtC6bYWU7sAha6jtmNBZEVfyAr/lTwebeEbDUx8pRJTiAFRfAImip6dZyHFYMWlYnApbVinNUHyew4gZYBC1lnbMhXA5/2J6HTwlYymLkuFwcwYorYBG0Ou/q7FhKdYD9KmhPImDZo7uttXIGK+6AdQxaEd9XEqTBtgaLq8rl+BYGO69QIWBx1SHMd4ZDWHEJLObU42sG9fMEkgsJWo39siFUBn+kwvxO2kkNBCxb5be2ck5hxS2wCFrH+6fdU8EmTwhY1jLDtto4hhXXwCJosY0LMqptngoSsGxDh/UVcw4r7oHldmjVh0oR4OSechphWc8PS2sUAFZCAMut0GLHbnh6AYaAZSk+rK1MEFgJAyy3QUtGLP6rILvripdEwOIlEgb7IRCshAJWE7S8/qRVkDyDDA4bV+bY7aHsFlGeEgGLp2gY5ItgsBIOWMzhhwoG5qTJKYVOhRZ7DaaGw2fWCVgGQYIXMwLCSkhgORlajVPBvWBXA/OWCFi8RUSHP4LCSlhgORVadaFiBCPVOnqieUUJWOZpa6llGTulZEy28lpjI9tn+RXJRjrvpOkhu22zJnjASHkMtUXAMlROe4zJ2Bn2YtoDc1BsjwP6axUaWE4ZaclyFFUB9qsgf1PBpi5GwNL/sdlqwQGwEnpK2Dz4oo+02MswoWitrf05UeUErEQKcfx3h8DKMcASeaQVitajNniQ497e6BoBi/sQte+gg2DlKGCJCK1YfCrIHkGNcv81ELC4D1FbBx0GK8cBSzRo1QYPgb3HJ0IiYIkQpWY+OhBWjgSWKNAKRmpRFxLnVWMClkDAciisHAss3qEVQyS+QVSWY8J8BQQsQULlYFg5Glg8Q6smcADhmFivHBOwBACWw2HleGA1QStVTlktSR5z3llX2Y+DkRrUhY6oLGV/9t9OL0K31IGmOFJWvx1PFY40xbZrjLoAVq4AFmvkgwU5uWly+kq7ocU2hsanghBnKtglORtXnvQOBnSfZNq3z6bGK/bcjy92zxdqmmyaIGoNuwRWrgEWL9CqCe5HOOpX2x1tyz+k50xccdJSpPq6W+LD3sovsGTjFWDX61BSqICLYOUqYNkNrUCkGvUhcY5wjepzKS4Z+zq8niSFX44x2dgI9KU1Z8SPKlFKoIDLYOU6YNkFLXZzaOMGUVmIb/C03F/j7BGLbPOVjbBeWTsHxXWbbPOB+4pdCCtXAssOaFUHixCJBrj/BpiD4/tdjwvHvGS7r4FwFZ7/+jSUN+yw3RfuHHAprFwLLCuh5Q9XoiFcyl2fb8+hE3qdi6vGvwdJ8nDhb23gEJ77eiLY4XBKRxVwMaxcDSwroMWelmePSbAXBnlPud2n4YYf5HPnZkndFvzzm6lga4CuTy6HleuBZS60ZFQH9oM918V7ykzph19O3oy0pJ5curq38ku8vGaWUNtBDBeSYBWXVPgL/IzoGGbs0/KHK9AQLjPCPVNteCQfbjx1Nfp1nWBqPXqNrzv4It7deoNeM2KWJ1gdixsB66gUjdDKWClJku4d8dFYEFWBIiGmgued+DQmDvi5EB/yh9t+iW/2Py2Er4Y5KWNv2ItJIl9rbJgWNMJqKeWigqG5kL06oSXHYcWgxXvK6zkX153yKe9uHvOPbbp9cuVw1Ahw4aEhosrYG/Fh2v2zwf8Nj4Y0OLERGmG10kgvtBrC5fCHyxMrb3OO9KReuHnKVmQk97bZE3XV7yz7BP+77ix1hUTMTbBqN2oErHZk0QqtxqmgGDu0Lx+3BKP6Xirip4w3N1yC70qWCum7IqcJVh3KRMDqQBr10BJnKtg7YxRunrJF0bfDYyZH3+5AsOq0yxGwOpFHDbQaQmXwRyp4/L7b+HTp2DcwJvtKIXztyMnX152PHWUfCN2GNs4TrBLGk4CVQCIl0IrEgqgWZCrYLTUXt0zbw81u9oQ9tIMMRVUF+Oc307UW568cwUpRTAhYCmTqDFoyZFT794Htahchzcq7FzOG3iWCqwl9/PuqMWA74YVPBCvFISRgKZSqI2jVh0oRiFQqtGJ/tp9PWo/szJPsd8QAD/7z/R9RsPdBAyzZaIJgpUp8ApYKuVpDix27qY5vEBUjsSM4t804JIazCrzcV5WPF7+ZoSAnp1kIVqoDQ8BSKVkTtCDJA9jBZnbXlSjplAE34vwTnxPFXUV+PvB5pjBvO7ZoEMFKUXxbZyJgaZDt0ZVDBoWCFSuDker+GorbVmTeCY9iyqDbbKvfjIpfXHMG9lV+aYZp82wSrDRrS8DSKN2dyzDIF0EBJOg+e6jRBdXFLh7zKsb1u1Z1OZ4LLN38I2w8/CrPLrb0jWClK1YELB3yiQat6yZ8irysuTpazF/RZTvvQv6e+/lzrD2PCFa640TA0imhSND6+aR1yM4cr7PFfBVfc+AZfPDdL/hyimBlWjwIWAZIKwq0bpq0Fv0y+b73Sm041h58Hu9v/ZnaYtbmp5GVYXoTsAySUgRo/WTilxjUQ+BtAO3EatW+x/DJDo5/SCBYGfSFNZohYBkoJ+/Qumr8uxjR+wIDW2y/qc933YUVuzldwyJYGd5BCFgGS8oztJy4rWHxhsuwteQtg6NogDmClQEitjVBwDJBVl6hdXLODfjh6H+Y0GL7TD5VOApl9d/Z5wAtsFuqPQHLJLl5hFbfLifhF5PXm9Ri682GInX4y/KuYAfQuUk0sjI1FAQsE+XlDVoSJPxhZjVSfJkmtto609+XfYTX1p1jXYWJapJxIOLDJLqDPZFQ2v9OwNKunaKSvEHr6vHv44Te5ynynfdMn35/Owr3PsqHm42wYg9GiHFHNh+qqfaCgKVaMvUFeILW2OyrccnY19Q3grMSshzDX1fkoC5UbL9nBCvLYkDAskhqXqDFHk79/ellSE3qZlHLzalmR+kHeH39+eYYV2OVYKVGLd15CVi6JVRugBdozRn+IKYNvkO54xzmfGXtPOyu+MxezwhWlutPwLJYch6glZHcB7dNPwiPx2dx642prqRuM/6+aqwxxrRaIVhpVU5XOQKWLvm0FeYBWheMegET+v9UWwNsLrVk0xXYcmSxfV4QrGzTnoBlk/R2Qys9KQu/mbZHuC0O+6sK8Y9vptoUNQAEK/u0p7OEtmoPu6F1Wu6vcfaIRfaKoLL2p1eNQ3HdJpWlDMpOsDJISO1maISlXTtDStoNresmfIK8rHmGtMVsIx9tvwWri2wCLMHK7PAqsk/AUiSTuZmOQusrSMg2t6a21tOSeoA9/cUeWOU5bT7yJt7aZNNr1QQrbroGAYuTUNy1DHnexjviLYdW99TB+MkPVqBb6kBO1Gjpxs6yj/HG+gsQteOFIoIVV32CgMVROOyEVs/0YfjxKcvRNZWvNzVs3SBKsOLo62h0hYDFWUjshFaX5Gzc8IN8MHjxkDYf+ReWbr4WMTlqvTsEK+s1V1AjAUuBSFZnsRNabLvDxWNfw7CsM61udov6Pt91N1bsvs8eHwhW9uiuoFYClgKR7MhiJ7RYe6cOvh1zhz9sedOrA0XxxfX9VassrzteIcHKHt0V1krAUiiUHdnshlbvjFG4bNxi9Oky2pLmf3vwBXy8/RaEovWW1NemEoKVPbqrqJWApUIsO7LaDS3W5lMH3oxJubeYtrb1XclSrNr3OIqqCuyQuLFOgpV92quomYClQiy7svIALdb2Yb3Owin9b8SJfS7WLUVDuBzfHngBaw4+gyr/Xt32dBkgWOmSz8rCBCwr1dZRFy/QYk3omtIfQ7Pmxh9l7df1ZGRnnoxkb0anrasO7Mfhmm9xpG4dDtWswY7SD3WoYWBRgpWBYppvioBlvsaG1cATtFo3Kit9OLqnDUHX1P5g19dEY2HUhY6gNnAQxXUb4Q9XGqaDYYZkHDl6Bztda2yYqOYaImCZq6/h1nmGluGNNdOgjCNRH6bdNxu7zKyGbBurAAHLWD0tsUbQ0ikzwUqngPYVJ2DZp72umglaGuUjWGkUjo9iBCw+4qDJC4KWStkIVioF4y87AYu/mKjyiKClUC6ClUKh+M5GwOI7Poq8I2glkIlgpagfiZCJgCVClBT4SNDqQCSClYLeI04WApY4sUroKUGrlUQEq4R9RrQMBCzRIpbAX4LWUYEIVg7r2Y3NIWA5MKwMWp4IVkkSejuweYmbRLBKrJGgOQhYggYukdt3fY4RnjDyXQctglWiriH03wlYQoevc+ddBy2ClYN7M00JHR9c1kDXQItg5Yr+TCMsF4TZ8dAiWLmgF9MIyzVBdvRIi2Dlqn5MIywXhdtxIy2ClYt6L42wXBdsR420CFau7L80wnJh2IUfaRGsXNhraYTl2qALPdIiWLm639IIy8XhF22kJcsojfkwma41dm+nJWC5N/bxlosCrTiskjD9vlnY7vKQubr5BCxXh7+x8bxDi2BFnbRJAQIW9YXj0IrgEwkYxJMksoz9sSTMpZEVT1GxzxcCln3ac1fz/OXoLofwISRM4cE5WcbasBdn/mUOynnwh3ywXwEClv0x4MqDyxbDe2I3vCxJuMZmx5ZKSbhm/kwEbPaDqudIAQIWR8HgyZX5n+F3soxHbPLpjnvm4WGb6qZqOVaAgMVxcOx27e7PMNYTwwOQcJ7ZvsiADBmvR4E/3n8m9ptdH9kXUwEClphxs9Truz/BKR4JCwFMM6ViGR/EPPjTvXOxyRT7ZNQxChCwHBNK8xty98cY7ZVwUUzCxRJwsp4aZRlbJOD9mAeL752LdXpsUVn3KEDAck+sDW3pncswyBvBxQDOliQMkoG+EtCto0pkoFgCVksyPgn78OH9s7HPUIfImCsUIGC5IszWNZKBzBNBtteDNFZrVIbsjWHT/LNQYZ0XVJNTFSBgOTWy1C5SwIEK/D/jc8mk5Sjb2QAAAABJRU5ErkJggg==;container=0;" parent="75" vertex="1">
                    <mxGeometry x="36" y="-16" width="50" height="50" as="geometry"/>
                </mxCell>
                <mxCell id="110" value="" style="endArrow=classic;startArrow=classic;html=1;strokeColor=#c5bebe;exitX=1;exitY=0.75;exitDx=0;exitDy=0;entryX=0;entryY=0.488;entryDx=0;entryDy=0;entryPerimeter=0;" edge="1" parent="1" source="65" target="79">
                    <mxGeometry width="50" height="50" relative="1" as="geometry">
                        <mxPoint x="480" y="550" as="sourcePoint"/>
                        <mxPoint x="530" y="500" as="targetPoint"/>
                    </mxGeometry>
                </mxCell>
                <mxCell id="112" style="edgeStyle=none;html=1;exitX=1;exitY=0.25;exitDx=0;exitDy=0;strokeColor=#c5bebe;startArrow=classic;startFill=1;endArrow=classic;endFill=1;entryX=-0.032;entryY=0.589;entryDx=0;entryDy=0;entryPerimeter=0;" edge="1" parent="1" source="65" target="78">
                    <mxGeometry relative="1" as="geometry">
                        <mxPoint x="430" y="400" as="targetPoint"/>
                    </mxGeometry>
                </mxCell>
                <mxCell id="113" value="" style="endArrow=classic;startArrow=classic;html=1;strokeColor=#c5bebe;entryX=1;entryY=0.5;entryDx=0;entryDy=0;exitX=-0.013;exitY=0.51;exitDx=0;exitDy=0;exitPerimeter=0;" edge="1" parent="1" source="77" target="65">
                    <mxGeometry width="50" height="50" relative="1" as="geometry">
                        <mxPoint x="653.030303030303" y="425" as="sourcePoint"/>
                        <mxPoint x="290" y="390" as="targetPoint"/>
                    </mxGeometry>
                </mxCell>
                <mxCell id="114" style="edgeStyle=none;html=1;exitX=0;exitY=0.5;exitDx=0;exitDy=0;strokeColor=#c5bebe;startArrow=classic;startFill=1;endArrow=classic;endFill=1;" edge="1" parent="1" source="65" target="72">
                    <mxGeometry relative="1" as="geometry">
                        <mxPoint x="130" y="424.44444444444446" as="targetPoint"/>
                    </mxGeometry>
                </mxCell>
                <mxCell id="115" value="" style="endArrow=classic;startArrow=classic;html=1;strokeColor=#c5bebe;entryX=0.005;entryY=0.212;entryDx=0;entryDy=0;entryPerimeter=0;exitX=1.01;exitY=0.485;exitDx=0;exitDy=0;exitPerimeter=0;" edge="1" parent="1" source="73" target="65">
                    <mxGeometry width="50" height="50" relative="1" as="geometry">
                        <mxPoint x="80" y="420" as="sourcePoint"/>
                        <mxPoint x="130" y="370" as="targetPoint"/>
                    </mxGeometry>
                </mxCell>
                <mxCell id="116" value="" style="endArrow=classic;startArrow=classic;html=1;strokeColor=#c5bebe;entryX=-0.003;entryY=0.782;entryDx=0;entryDy=0;entryPerimeter=0;exitX=0.998;exitY=0.511;exitDx=0;exitDy=0;exitPerimeter=0;" edge="1" parent="1" source="74" target="65">
                    <mxGeometry width="50" height="50" relative="1" as="geometry">
                        <mxPoint x="80" y="420" as="sourcePoint"/>
                        <mxPoint x="130" y="370" as="targetPoint"/>
                    </mxGeometry>
                </mxCell>
                <mxCell id="120" value="" style="edgeStyle=none;html=1;strokeColor=#c5bebe;startArrow=classic;startFill=1;endArrow=classic;endFill=1;entryX=-0.033;entryY=0.501;entryDx=0;entryDy=0;entryPerimeter=0;exitX=1.007;exitY=0.522;exitDx=0;exitDy=0;exitPerimeter=0;" edge="1" parent="1" source="19" target="73">
                    <mxGeometry relative="1" as="geometry">
                        <mxPoint x="-220" y="331" as="sourcePoint"/>
                        <mxPoint x="-28" y="330.5" as="targetPoint"/>
                    </mxGeometry>
                </mxCell>
                <mxCell id="121" value="" style="edgeStyle=none;html=1;strokeColor=#c5bebe;startArrow=classic;startFill=1;endArrow=classic;endFill=1;entryX=-0.011;entryY=0.497;entryDx=0;entryDy=0;entryPerimeter=0;exitX=1.012;exitY=0.47;exitDx=0;exitDy=0;exitPerimeter=0;" edge="1" parent="1" source="18" target="72">
                    <mxGeometry relative="1" as="geometry">
                        <mxPoint x="-350.0000000000001" y="450.8619999999999" as="sourcePoint"/>
                        <mxPoint x="-52.000000000000114" y="450.0009999999999" as="targetPoint"/>
                    </mxGeometry>
                </mxCell>
                <mxCell id="122" value="" style="edgeStyle=none;html=1;strokeColor=#c5bebe;startArrow=classic;startFill=1;endArrow=classic;endFill=1;entryX=-0.039;entryY=0.481;entryDx=0;entryDy=0;entryPerimeter=0;exitX=1.029;exitY=0.5;exitDx=0;exitDy=0;exitPerimeter=0;" edge="1" parent="1" source="20" target="74">
                    <mxGeometry relative="1" as="geometry">
                        <mxPoint x="-459.9999999999999" y="560" as="sourcePoint"/>
                        <mxPoint x="-161.14999999999995" y="561.107" as="targetPoint"/>
                    </mxGeometry>
                </mxCell>
                <mxCell id="133" value="" style="group" vertex="1" connectable="0" parent="1">
                    <mxGeometry x="496" y="290" width="335" height="330" as="geometry"/>
                </mxCell>
                <mxCell id="128" value="" style="group" vertex="1" connectable="0" parent="133">
                    <mxGeometry x="130" width="205" height="222" as="geometry"/>
                </mxCell>
                <mxCell id="123" value="" style="rounded=0;whiteSpace=wrap;html=1;fillColor=none;" vertex="1" parent="128">
                    <mxGeometry width="180" height="205" as="geometry"/>
                </mxCell>
                <mxCell id="126" value="Woker Node&lt;br&gt;CA 1" style="sketch=0;html=1;dashed=0;whitespace=wrap;fillColor=#2875E2;strokeColor=#ffffff;points=[[0.005,0.63,0],[0.1,0.2,0],[0.9,0.2,0],[0.5,0,0],[0.995,0.63,0],[0.72,0.99,0],[0.5,1,0],[0.28,0.99,0]];verticalLabelPosition=bottom;align=center;verticalAlign=top;shape=mxgraph.kubernetes.icon;prIcon=node;fontSize=12;" vertex="1" parent="128">
                    <mxGeometry x="155" y="172" width="50" height="50" as="geometry"/>
                </mxCell>
                <mxCell id="129" value="" style="group" vertex="1" connectable="0" parent="133">
                    <mxGeometry y="164.5" width="145" height="165.5" as="geometry"/>
                </mxCell>
                <mxCell id="125" value="" style="rounded=0;whiteSpace=wrap;html=1;fillColor=none;" vertex="1" parent="129">
                    <mxGeometry width="120" height="145.5" as="geometry"/>
                </mxCell>
                <mxCell id="127" value="Woker Node&lt;br&gt;CA 2" style="sketch=0;html=1;dashed=0;whitespace=wrap;fillColor=#2875E2;strokeColor=#ffffff;points=[[0.005,0.63,0],[0.1,0.2,0],[0.9,0.2,0],[0.5,0,0],[0.995,0.63,0],[0.72,0.99,0],[0.5,1,0],[0.28,0.99,0]];verticalLabelPosition=bottom;align=center;verticalAlign=top;shape=mxgraph.kubernetes.icon;prIcon=node;fontSize=12;" vertex="1" parent="129">
                    <mxGeometry x="95" y="115.5" width="50" height="50" as="geometry"/>
                </mxCell>
                <mxCell id="134" value="" style="group" vertex="1" connectable="0" parent="1">
                    <mxGeometry x="-274" y="290" width="335" height="330" as="geometry"/>
                </mxCell>
                <mxCell id="135" value="" style="group" vertex="1" connectable="0" parent="134">
                    <mxGeometry x="130" width="205" height="222" as="geometry"/>
                </mxCell>
                <mxCell id="136" value="" style="rounded=0;whiteSpace=wrap;html=1;fillColor=none;" vertex="1" parent="135">
                    <mxGeometry width="180" height="205" as="geometry"/>
                </mxCell>
                <mxCell id="137" value="Woker Node&lt;br&gt;MA 1" style="sketch=0;html=1;dashed=0;whitespace=wrap;fillColor=#2875E2;strokeColor=#ffffff;points=[[0.005,0.63,0],[0.1,0.2,0],[0.9,0.2,0],[0.5,0,0],[0.995,0.63,0],[0.72,0.99,0],[0.5,1,0],[0.28,0.99,0]];verticalLabelPosition=bottom;align=center;verticalAlign=top;shape=mxgraph.kubernetes.icon;prIcon=node;fontSize=12;" vertex="1" parent="135">
                    <mxGeometry x="155" y="172" width="50" height="50" as="geometry"/>
                </mxCell>
                <mxCell id="138" value="" style="group" vertex="1" connectable="0" parent="134">
                    <mxGeometry y="164.5" width="145" height="165.5" as="geometry"/>
                </mxCell>
                <mxCell id="139" value="" style="rounded=0;whiteSpace=wrap;html=1;fillColor=none;" vertex="1" parent="138">
                    <mxGeometry width="120" height="145.5" as="geometry"/>
                </mxCell>
                <mxCell id="140" value="Woker Node&lt;br&gt;MA 2" style="sketch=0;html=1;dashed=0;whitespace=wrap;fillColor=#2875E2;strokeColor=#ffffff;points=[[0.005,0.63,0],[0.1,0.2,0],[0.9,0.2,0],[0.5,0,0],[0.995,0.63,0],[0.72,0.99,0],[0.5,1,0],[0.28,0.99,0]];verticalLabelPosition=bottom;align=center;verticalAlign=top;shape=mxgraph.kubernetes.icon;prIcon=node;fontSize=12;" vertex="1" parent="138">
                    <mxGeometry x="95" y="115.5" width="50" height="50" as="geometry"/>
                </mxCell>
                <mxCell id="141" value="" style="group" vertex="1" connectable="0" parent="1">
                    <mxGeometry x="-622" y="290" width="335" height="330" as="geometry"/>
                </mxCell>
                <mxCell id="142" value="" style="group" vertex="1" connectable="0" parent="141">
                    <mxGeometry x="110" width="225" height="222" as="geometry"/>
                </mxCell>
                <mxCell id="143" value="" style="rounded=0;whiteSpace=wrap;html=1;fillColor=none;" vertex="1" parent="142">
                    <mxGeometry width="220" height="205" as="geometry"/>
                </mxCell>
                <mxCell id="144" value="Woker Node&lt;br&gt;BA 1" style="sketch=0;html=1;dashed=0;whitespace=wrap;fillColor=#2875E2;strokeColor=#ffffff;points=[[0.005,0.63,0],[0.1,0.2,0],[0.9,0.2,0],[0.5,0,0],[0.995,0.63,0],[0.72,0.99,0],[0.5,1,0],[0.28,0.99,0]];verticalLabelPosition=bottom;align=center;verticalAlign=top;shape=mxgraph.kubernetes.icon;prIcon=node;fontSize=12;" vertex="1" parent="142">
                    <mxGeometry x="170.1219512195122" y="172" width="54.87804878048781" height="50" as="geometry"/>
                </mxCell>
                <mxCell id="145" value="" style="group" vertex="1" connectable="0" parent="141">
                    <mxGeometry y="164.5" width="145" height="165.5" as="geometry"/>
                </mxCell>
                <mxCell id="146" value="" style="rounded=0;whiteSpace=wrap;html=1;fillColor=none;" vertex="1" parent="145">
                    <mxGeometry width="120" height="145.5" as="geometry"/>
                </mxCell>
                <mxCell id="147" value="Woker Node&lt;br&gt;BA 2" style="sketch=0;html=1;dashed=0;whitespace=wrap;fillColor=#2875E2;strokeColor=#ffffff;points=[[0.005,0.63,0],[0.1,0.2,0],[0.9,0.2,0],[0.5,0,0],[0.995,0.63,0],[0.72,0.99,0],[0.5,1,0],[0.28,0.99,0]];verticalLabelPosition=bottom;align=center;verticalAlign=top;shape=mxgraph.kubernetes.icon;prIcon=node;fontSize=12;" vertex="1" parent="145">
                    <mxGeometry x="95" y="115.5" width="50" height="50" as="geometry"/>
                </mxCell>
                <mxCell id="152" value="" style="group" vertex="1" connectable="0" parent="1">
                    <mxGeometry x="440" y="90" width="450" height="661" as="geometry"/>
                </mxCell>
                <mxCell id="149" value="" style="rounded=0;whiteSpace=wrap;html=1;fillColor=none;dashed=1;dashPattern=1 4;strokeWidth=2;" vertex="1" parent="152">
                    <mxGeometry width="450" height="620" as="geometry"/>
                </mxCell>
                <mxCell id="151" value="Frontend Service" style="text;html=1;strokeColor=none;fillColor=none;align=center;verticalAlign=middle;whiteSpace=wrap;rounded=0;dashed=1;dashPattern=1 4;strokeWidth=2;" vertex="1" parent="152">
                    <mxGeometry x="140" y="631" width="170" height="30" as="geometry"/>
                </mxCell>
            </root>
        </mxGraphModel>
    </diagram>
</mxfile>